# Blender v2.79 (sub 1) OBJ File: 'untitled.blend'
# www.blender.org
mtllib Torch.mtl
o Cube.001
v -0.122212 -0.624303 0.122242
v -0.122212 0.624303 0.122242
v -0.122212 -0.624303 -0.122242
v -0.122212 0.624303 -0.122242
v 0.122212 -0.624303 0.122242
v 0.122212 0.624303 0.122242
v 0.122212 -0.624303 -0.122242
v 0.122212 0.624303 -0.122242
vt 0.000000 1.000000
vt 0.000000 0.000000
vt 0.200029 0.000000
vt 0.200029 1.000000
vt 0.400059 1.000000
vt 0.400059 0.000000
vt 0.600039 0.000000
vt 0.600039 1.000000
vt 0.400059 0.000000
vt 0.400059 1.000000
vt 0.200029 1.000000
vt 0.200029 0.000000
vt 0.600039 1.000000
vt 0.600039 0.000000
vt 0.800020 0.000000
vt 0.800020 1.000000
vt 0.800020 0.195805
vt 1.000000 0.195805
vt 1.000000 0.391610
vt 0.800020 0.391610
vt 1.000000 0.195805
vt 0.800020 0.195805
vt 1.000000 0.000000
vn -1.0000 0.0000 0.0000
vn 0.0000 0.0000 -1.0000
vn 1.0000 0.0000 0.0000
vn -0.0000 0.0000 1.0000
vn 0.0000 -1.0000 0.0000
vn 0.0000 1.0000 0.0000
usemtl Material.003
s off
f 1/1/1 2/2/1 4/3/1 3/4/1
f 3/5/2 4/6/2 8/7/2 7/8/2
f 7/9/3 8/10/3 6/11/3 5/12/3
f 5/13/4 6/14/4 2/15/4 1/16/4
f 3/17/5 7/18/5 5/19/5 1/20/5
f 8/21/6 4/22/6 2/15/6 6/23/6
